# xmcd CD database file
#
# Track frame offsets:
#	150
#	27010
#	47455
#	69130
#	102692
#	119867
#	151277
#	171817
#	200382
#	225407
#	256812
#	282792
#	298742
#
# Disc length: 4132 seconds
#
# Revision: 0
# Processed by: cddbd v1.5.1PL0 Copyright (c) Steve Scherf et al.
# Submitted via: CDex 1.51
#
DISCID=b010220d
DTITLE=Ken Colyer - Live 1967
DYEAR=1967
DGENRE=Jazz
TTITLE0=Maria Elena
TTITLE1=Everywhere You're Going Is Sunschine
TTITLE2=Get Is Right
TTITLE3=Georgia Bobo
TTITLE4=Creole Bobo
TTITLE5=Stardust
TTITLE6=My Life Will Be Sweeter Someday
TTITLE7=In A Sweet By And By
TTITLE8=Ain't She Glad
TTITLE9=Make Me A Pallet On The Floor
TTITLE10=China Town
TTITLE11=By And By
TTITLE12=Auf Wiederseh'n
EXTD=YEAR: 1967
EXTT0=
EXTT1=
EXTT2=
EXTT3=
EXTT4=
EXTT5=
EXTT6=
EXTT7=
EXTT8=
EXTT9=
EXTT10=
EXTT11=
EXTT12=
PLAYORDER=
